<svg xmlns="http://www.w3.org/2000/svg" width="239.8" height="65.64" viewBox="0 0 239.8 65.64"><rect x="16.92" y="17.02" width="13.32" height="48.11" fill="#1c2955"/><rect x="16.92" width="13.32" height="13.09" fill="#6ec0d8"/><rect x="51.1" y="34.04" width="14.31" height="14.07" fill="#6ec0d8"/><rect y="17.02" width="13.32" height="48.11" fill="#1c2955"/><rect width="13.32" height="13.09" fill="#6ec0d8"/><path d="M112,41V20.94h3.49V41Z" transform="translate(-15.59 -4.07)" fill="#2376bc"/><path d="M127.88,41V32.38c0-2.28-.25-3.85-2.71-3.85a2.91,2.91,0,0,0-3.24,3.25V41h-3.34V25.91h2.88l.23,1.84h.09a4.67,4.67,0,0,1,4.35-2.2c4,0,5.12,2.38,5.12,6.2V41Z" transform="translate(-15.59 -4.07)" fill="#2376bc"/><path d="M143.62,41l-.23-2.14h-.08A4.56,4.56,0,0,1,139,41.36c-4.35,0-5.89-3.79-5.89-8s1.49-7.83,5.89-7.83a4.4,4.4,0,0,1,4,1.93h.06V19.94h3.35V41Zm-.51-9.64c0-2.17-1.29-3.1-3.21-3.1-3,0-3.37,2.53-3.37,5.12s.45,5.36,3.43,5.36c2.26,0,3.15-1.66,3.15-3.86Z" transform="translate(-15.59 -4.07)" fill="#2376bc"/><path d="M158.81,41l-.25-1.81h-.09a4.53,4.53,0,0,1-4.23,2.17c-3.15,0-5-1.54-5-6.32V25.91h3.37v8c0,2.8.15,4.46,2.66,4.46s3-1.3,3-3.43V25.91h3.34V41Z" transform="translate(-15.59 -4.07)" fill="#2376bc"/><path d="M169.43,41.36a11.3,11.3,0,0,1-6-1.72l1.17-2.38a9.42,9.42,0,0,0,4.81,1.57c1.46,0,2.49-.51,2.49-1.9s-1.46-1.89-3.12-2.35c-2.46-.63-4.89-1.53-4.89-4.73,0-2.59,2-4.3,5.57-4.3a10.93,10.93,0,0,1,5.07,1.26l-.92,2.32A8.36,8.36,0,0,0,169.69,28c-1.58,0-2.64.48-2.64,1.71s1.55,1.72,3.38,2.2c2.2.58,4.61,1.51,4.61,4.73S173,41.36,169.43,41.36Z" transform="translate(-15.59 -4.07)" fill="#2376bc"/><path d="M182.44,41.24c-3.69,0-4.49-1.23-4.49-4.31V28.74h-2.34V25.91H178V21.84h3.29v4.07h3.38v2.83h-3.38v7.68c0,1.54.12,1.93,2.55,1.93a8.25,8.25,0,0,0,.83,0v2.77A21.91,21.91,0,0,1,182.44,41.24Z" transform="translate(-15.59 -4.07)" fill="#2376bc"/><path d="M194.09,28.68c-2.52,0-4.2.54-4.2,3.28V41h-3.35V25.91h2.89l.26,2h.05c.83-1.57,2.09-2.29,4.29-2.29h.89v3.07Z" transform="translate(-15.59 -4.07)" fill="#2376bc"/><path d="M204,42.26c-1.63,4.49-2.55,5.58-5.64,5.58a16.46,16.46,0,0,1-1.86-.12v-2.8c.29,0,.63.06,1.4.06,1.52,0,1.92-.64,2.58-2.5l.69-1.87-5.52-14.7h3.6L202.85,37h.08l3.46-11h3.55Z" transform="translate(-15.59 -4.07)" fill="#2376bc"/><path d="M217.78,41V20.94h3.49V41Z" transform="translate(-15.59 -4.07)" fill="#2376bc"/><path d="M231.25,25.55c4.72,0,7.07,3.13,7.07,7.92,0,4.58-2.23,7.89-7.07,7.89s-7.06-3.28-7.06-7.89C224.19,29.07,226.22,25.55,231.25,25.55Zm0,13.13c2.78,0,3.64-2.11,3.64-5.21s-.86-5.15-3.67-5.15-3.69,2.08-3.69,5.15S228.45,38.68,231.28,38.68Z" transform="translate(-15.59 -4.07)" fill="#2376bc"/><path d="M246.16,24.07V41h-3.52v-17h-5.35V20.94h14.25v3.13Z" transform="translate(-15.59 -4.07)" fill="#2376bc"/><path d="M119.08,69.68c-6.13,0-9-4.13-9-10.48,0-5.85,3-10.27,9-10.27A9.3,9.3,0,0,1,126,52l-2.12,2.38A6.07,6.07,0,0,0,119.22,52c-3.46,0-5.52,2.29-5.52,7.23,0,4.21,1.46,7.41,5.46,7.41a7,7,0,0,0,5.1-2.44l1.88,2.44A9.63,9.63,0,0,1,119.08,69.68Z" transform="translate(-15.59 -4.07)" fill="#2376bc"/><path d="M133.71,53.87c4.72,0,7.07,3.13,7.07,7.92,0,4.58-2.24,7.89-7.07,7.89s-7.07-3.28-7.07-7.89C126.64,57.39,128.67,53.87,133.71,53.87Zm0,13.13c2.77,0,3.63-2.11,3.63-5.21s-.86-5.15-3.66-5.15S130,58.72,130,61.79,130.91,67,133.74,67Z" transform="translate(-15.59 -4.07)" fill="#2376bc"/><path d="M151.84,69.35V60.7c0-2.29-.26-3.85-2.72-3.85a2.9,2.9,0,0,0-3.23,3.25v9.25h-3.35V54.23h2.89l.23,1.84h.09a4.66,4.66,0,0,1,4.34-2.2c3.95,0,5.13,2.38,5.13,6.2v9.28Z" transform="translate(-15.59 -4.07)" fill="#2376bc"/><path d="M163,69.68A11.3,11.3,0,0,1,157,68l1.17-2.38A9.45,9.45,0,0,0,163,67.15c1.46,0,2.49-.51,2.49-1.9s-1.46-1.9-3.12-2.35c-2.46-.63-4.89-1.53-4.89-4.73,0-2.59,2-4.3,5.58-4.3a10.92,10.92,0,0,1,5.06,1.26l-.92,2.32a8.33,8.33,0,0,0-3.94-1.14c-1.58,0-2.64.48-2.64,1.71s1.55,1.72,3.38,2.2c2.2.57,4.61,1.51,4.61,4.73S166.55,69.68,163,69.68Z" transform="translate(-15.59 -4.07)" fill="#2376bc"/><path d="M177.05,53.87c4.72,0,7.06,3.13,7.06,7.92,0,4.58-2.23,7.89-7.06,7.89S170,66.4,170,61.79C170,57.39,172,53.87,177.05,53.87Zm0,13.13c2.78,0,3.64-2.11,3.64-5.21s-.86-5.15-3.66-5.15-3.69,2.08-3.69,5.15S174.24,67,177.07,67Z" transform="translate(-15.59 -4.07)" fill="#2376bc"/><path d="M193.93,57c-2.52,0-4.21.54-4.21,3.28v9.07h-3.35V54.23h2.89l.26,2h.06c.83-1.57,2.09-2.29,4.29-2.29h.89V57Z" transform="translate(-15.59 -4.07)" fill="#2376bc"/><path d="M202.77,69.56c-3.7,0-4.5-1.24-4.5-4.31V57.06h-2.34V54.23h2.37V50.16h3.29v4.07H205v2.83h-3.38v7.68c0,1.54.12,1.93,2.55,1.93a8.25,8.25,0,0,0,.83,0v2.77A21.92,21.92,0,0,1,202.77,69.56Z" transform="translate(-15.59 -4.07)" fill="#2376bc"/><path d="M209.34,52.18a1.82,1.82,0,1,1,0-3.61,1.82,1.82,0,1,1,0,3.61Zm-1.71,17.17V54.23h3.43V69.35Z" transform="translate(-15.59 -4.07)" fill="#2376bc"/><path d="M223.51,69.35l-.26-1.81h-.09a4.53,4.53,0,0,1-4.23,2.17c-3.15,0-5-1.54-5-6.33V54.23h3.38v8c0,2.8.14,4.46,2.66,4.46s3-1.3,3-3.44V54.23h3.35V69.35Z" transform="translate(-15.59 -4.07)" fill="#2376bc"/><path d="M246.57,69.35V60.46c0-2.14-.35-3.61-2.43-3.61a2.61,2.61,0,0,0-2.89,2.89v9.61H237.9V60.4c0-2.2-.37-3.55-2.49-3.55a2.78,2.78,0,0,0-2.83,2.95v9.55h-3.35V54.23h3l.23,1.87h.09a3.91,3.91,0,0,1,3.8-2.23,3.87,3.87,0,0,1,3.92,2.32,4.66,4.66,0,0,1,4.35-2.32c3.81,0,5.32,2.23,5.32,6.23v9.25Z" transform="translate(-15.59 -4.07)" fill="#2376bc"/><polygon points="69.07 43.18 69.07 51.88 47.46 51.88 47.46 30.27 69.07 30.27 69.07 38.96 82.37 38.96 82.37 17.02 34.14 17.02 34.14 65.13 82.37 65.13 82.37 43.18 69.07 43.18" fill="#1c2955"/><path d="M255.39,66.63a1.85,1.85,0,1,1-1.84-1.8A1.81,1.81,0,0,1,255.39,66.63Zm-3.24,0a1.4,1.4,0,0,0,1.41,1.44,1.44,1.44,0,0,0,0-2.88A1.4,1.4,0,0,0,252.15,66.63Zm1.11,1h-.42V65.77a4.12,4.12,0,0,1,.7,0,1.07,1.07,0,0,1,.62.13.51.51,0,0,1,.18.4.46.46,0,0,1-.37.41v0a.53.53,0,0,1,.33.44,1.21,1.21,0,0,0,.13.45H254a1.53,1.53,0,0,1-.15-.44c0-.2-.14-.29-.37-.29h-.2Zm0-1h.2c.23,0,.42-.07.42-.26s-.12-.28-.39-.28a1,1,0,0,0-.23,0Z" transform="translate(-15.59 -4.07)" fill="#2376bc"/><path d="M100.12,66.69H99.3V66.4h2v.29h-.83v2.4h-.35Z" transform="translate(-15.59 -4.07)" fill="#1c2955"/><path d="M103.87,67.91c0-.38,0-.83,0-1.17h0c-.09.32-.21.66-.34,1l-.48,1.3h-.26l-.44-1.28c-.12-.38-.23-.73-.31-1.05h0c0,.34,0,.79,0,1.2l-.07,1.15h-.33l.19-2.69h.44l.46,1.3c.11.33.2.63.27.91h0c.07-.27.17-.57.29-.91l.48-1.3h.44l.17,2.69h-.34Z" transform="translate(-15.59 -4.07)" fill="#1c2955"/></svg>